Coordinates
version=1
nRows=34
nColumns=38
inDegrees=no

Units are S.I. units (second, meters, Newtons, ...)
If the header above contains a line with 'inDegrees', this indicates whether rotational values are in degrees (yes) or radians (no).

endheader
time	pelvis_tilt	pelvis_list	pelvis_rotation	pelvis_tx	pelvis_ty	pelvis_tz	hip_flexion_r	hip_adduction_r	hip_rotation_r	knee_angle_r	ankle_angle_r	subtalar_angle_r	mtp_angle_r	hip_flexion_l	hip_adduction_l	hip_rotation_l	knee_angle_l	ankle_angle_l	subtalar_angle_l	mtp_angle_l	lumbar_extension	lumbar_bending	lumbar_rotation	arm_flex_r	arm_add_r	arm_rot_r	elbow_flex_r	pro_sup_r	wrist_flex_r	wrist_dev_r	arm_flex_l	arm_add_l	arm_rot_l	elbow_flex_l	pro_sup_l	wrist_flex_l	wrist_dev_l
9.18	2.74468	1.38099	-1.09312	0.773274	1.66477	0.98706	0.00555349	0.111544	-0.252701	0.320985	0.031078	0	0	-0.0859042	-0.138425	-0.121407	0.26535	0.157869	0	0	-0.155624	0.0977071	0.00761493	0.739241	-0.17121	0.535397	0.932375	1.5708	0	0	0.848765	-0.18002	0.641304	0.68236	1.5708	0	0
9.19	2.75465	1.37876	-1.10318	0.773267	1.66392	0.987053	0.00612563	0.110231	-0.252371	0.326219	0.0318322	0	0	-0.0909624	-0.139214	-0.120591	0.2725	0.168462	0	0	-0.155704	0.095689	0.00819318	0.733132	-0.171735	0.531141	0.936016	1.5708	0	0	0.844578	-0.180223	0.640893	0.684445	1.5708	0	0
9.2	2.76846	1.37342	-1.1177	0.773155	1.66295	0.98715	0.00331351	0.109511	-0.251538	0.331284	0.0326104	0	0	-0.0998887	-0.140519	-0.121538	0.280252	0.178182	0	0	-0.158011	0.0988727	0.00193771	0.724586	-0.173356	0.529321	0.955	1.5708	0	0	0.833452	-0.187346	0.627784	0.693175	1.5708	0	0
9.21	2.77921	1.3701	-1.12923	0.773043	1.66208	0.987263	0.00238811	0.108461	-0.250321	0.335749	0.0327929	0	0	-0.107005	-0.141297	-0.122279	0.288428	0.185725	0	0	-0.159302	0.0972555	0.00272923	0.718707	-0.174368	0.526043	0.96089	1.5708	0	0	0.827313	-0.187296	0.620909	0.697919	1.5708	0	0
9.22	2.78693	1.36974	-1.13756	0.77299	1.66133	0.987338	0.0045202	0.106743	-0.248933	0.340077	0.0325237	0	0	-0.110822	-0.141483	-0.123109	0.297915	0.19156	0	0	-0.15835	0.0902066	0.0107047	0.714961	-0.173782	0.519291	0.951483	1.5708	0	0	0.827298	-0.180173	0.624638	0.696721	1.5708	0	0
9.23	2.79715	1.36716	-1.14883	0.772837	1.66043	0.987426	0.00441778	0.105293	-0.247429	0.344544	0.032578	0	0	-0.11675	-0.142274	-0.126152	0.309191	0.197497	0	0	-0.158328	0.087928	0.0118281	0.709007	-0.173592	0.514545	0.954319	1.5708	0	0	0.821632	-0.180038	0.620704	0.700209	1.5708	0	0
9.24	2.81	1.36142	-1.16316	0.772527	1.65938	0.987574	0.00105696	0.104303	-0.246154	0.349024	0.0329705	0	0	-0.126033	-0.14377	-0.131111	0.321487	0.203876	0	0	-0.160435	0.0911295	0.00553278	0.700825	-0.174467	0.513136	0.971999	1.5708	0	0	0.80916	-0.186642	0.604286	0.709951	1.5708	0	0
9.25	2.81911	1.35816	-1.17324	0.772207	1.65842	0.987681	0.000120816	0.103109	-0.244886	0.352774	0.0327679	0	0	-0.132667	-0.14483	-0.134567	0.333992	0.209888	0	0	-0.160964	0.0895554	0.006092	0.695359	-0.174454	0.509096	0.976854	1.5708	0	0	0.802181	-0.18554	0.594396	0.714653	1.5708	0	0
9.26	2.82703	1.35533	-1.18214	0.771817	1.65741	0.987731	-0.000117661	0.101757	-0.24356	0.356864	0.0325036	0	0	-0.138676	-0.146008	-0.138275	0.347258	0.216321	0	0	-0.160719	0.0879675	0.00646836	0.69019	-0.174264	0.505502	0.980294	1.5708	0	0	0.795646	-0.184393	0.586184	0.718139	1.5708	0	0
9.27	2.83456	1.35278	-1.19029	0.771354	1.65634	0.987753	-0.000168368	0.100288	-0.242327	0.360628	0.0322004	0	0	-0.144203	-0.147201	-0.14154	0.360927	0.222177	0	0	-0.1601	0.0863379	0.00656211	0.6852	-0.174081	0.502804	0.983309	1.5708	0	0	0.789454	-0.183231	0.579283	0.721174	1.5708	0	0
9.28	2.8417	1.35028	-1.19747	0.77082	1.65519	0.987772	-0.000369571	0.0988694	-0.241484	0.363732	0.0317896	0	0	-0.149552	-0.148382	-0.143273	0.374527	0.22734	0	0	-0.15941	0.0847265	0.00622222	0.680686	-0.173692	0.500516	0.985779	1.5708	0	0	0.783735	-0.181994	0.573635	0.723771	1.5708	0	0
9.29	2.84751	1.34785	-1.20301	0.770225	1.65395	0.987788	-0.000261877	0.097553	-0.241053	0.36689	0.0313352	0	0	-0.154992	-0.149568	-0.14337	0.387221	0.231492	0	0	-0.158579	0.0833738	0.00563625	0.676146	-0.173248	0.498042	0.987862	1.5708	0	0	0.778392	-0.18082	0.569241	0.726157	1.5708	0	0
9.3	2.85238	1.34553	-1.20718	0.769553	1.65263	0.987798	2.8417e-05	0.096284	-0.241191	0.369923	0.0307429	0	0	-0.160162	-0.15095	-0.142797	0.399689	0.235372	0	0	-0.157553	0.0821981	0.00474607	0.67132	-0.172805	0.494282	0.990173	1.5708	0	0	0.773299	-0.179654	0.565793	0.728533	1.5708	0	0
9.31	2.85614	1.3435	-1.20991	0.768781	1.65122	0.987788	0.000557052	0.0951035	-0.241443	0.372452	0.0298577	0	0	-0.164849	-0.15246	-0.141626	0.411909	0.239737	0	0	-0.156261	0.0812639	0.0038929	0.666495	-0.173752	0.491273	0.99338	1.5708	0	0	0.768503	-0.178275	0.563037	0.731055	1.5708	0	0
9.32	2.8594	1.34163	-1.2116	0.767892	1.64971	0.987772	0.00110708	0.0939316	-0.241899	0.374432	0.0287056	0	0	-0.169067	-0.154009	-0.139855	0.423839	0.243947	0	0	-0.154836	0.0805224	0.00275949	0.661488	-0.175243	0.487627	0.99721	1.5708	0	0	0.763956	-0.176782	0.560785	0.73378	1.5708	0	0
9.33	2.86004	1.34325	-1.2099	0.767017	1.64822	0.987665	0.00528909	0.0922022	-0.242668	0.376099	0.027235	0	0	-0.169374	-0.154781	-0.135762	0.434951	0.24726	0	0	-0.15118	0.0746034	0.00976228	0.657247	-0.176479	0.47774	0.988963	1.5708	0	0	0.766732	-0.167803	0.570704	0.730039	1.5708	0	0
9.34	2.86358	1.33908	-1.21176	0.765901	1.64634	0.987643	0.00355577	0.0915534	-0.243283	0.377525	0.0261001	0	0	-0.176339	-0.15653	-0.132309	0.444429	0.250741	0	0	-0.150917	0.0792154	0.000171776	0.649688	-0.17892	0.476939	1.00618	1.5708	0	0	0.755651	-0.173565	0.557401	0.739633	1.5708	0	0
9.35	2.86554	1.33801	-1.21159	0.764792	1.64444	0.987565	0.00489465	0.0902432	-0.244059	0.378402	0.0244185	0	0	-0.180087	-0.157302	-0.126857	0.452448	0.253077	0	0	-0.149059	0.0786691	-0.00111187	0.643504	-0.181406	0.471481	1.01131	1.5708	0	0	0.751579	-0.171714	0.554693	0.743141	1.5708	0	0
9.36	2.86754	1.33713	-1.21158	0.763616	1.64241	0.98748	0.00678957	0.0885415	-0.245515	0.379832	0.0228318	0	0	-0.183576	-0.157718	-0.121145	0.459523	0.255576	0	0	-0.14721	0.0780589	-0.001849	0.637774	-0.185327	0.468025	1.01642	1.5708	0	0	0.748147	-0.169554	0.553712	0.746072	1.5708	0	0
9.37	2.86743	1.33954	-1.20912	0.762434	1.64037	0.987305	0.0123355	0.0860989	-0.247121	0.381437	0.0209716	0	0	-0.183134	-0.157274	-0.114227	0.466295	0.257687	0	0	-0.143598	0.0723541	0.00633232	0.633335	-0.189142	0.458412	1.00996	1.5708	0	0	0.752544	-0.159652	0.566439	0.741618	1.5708	0	0
9.38	2.86983	1.3363	-1.2096	0.761021	1.63793	0.987225	0.0121418	0.0848383	-0.248783	0.382738	0.0190959	0	0	-0.188653	-0.158027	-0.108628	0.472106	0.260826	0	0	-0.142961	0.0770572	-0.0030585	0.626532	-0.193552	0.460062	1.02675	1.5708	0	0	0.742648	-0.164472	0.554696	0.750588	1.5708	0	0
9.39	2.87128	1.33604	-1.20882	0.759638	1.63546	0.987096	0.0150206	0.0828382	-0.250471	0.383809	0.0167627	0	0	-0.191139	-0.15758	-0.101401	0.476096	0.262801	0	0	-0.141185	0.0765705	-0.00368757	0.621065	-0.198047	0.4564	1.03227	1.5708	0	0	0.740228	-0.161646	0.554352	0.753147	1.5708	0	0
9.4	2.87257	1.33613	-1.2083	0.758204	1.63281	0.986944	0.01844	0.0806432	-0.251347	0.384927	0.0142595	0	0	-0.193675	-0.156398	-0.0935569	0.478065	0.263376	0	0	-0.139368	0.0760184	-0.00377277	0.615801	-0.202902	0.452535	1.03753	1.5708	0	0	0.738544	-0.158661	0.555355	0.75505	1.5708	0	0
9.41	2.87303	1.33641	-1.20693	0.756653	1.62999	0.986756	0.022117	0.0784268	-0.25228	0.385592	0.0114283	0	0	-0.195826	-0.155061	-0.0857478	0.47881	0.262463	0	0	-0.13759	0.0757728	-0.003999	0.611182	-0.208183	0.449427	1.04224	1.5708	0	0	0.737125	-0.155422	0.556025	0.756778	1.5708	0	0
9.42	2.87277	1.33695	-1.2042	0.754977	1.62703	0.986526	0.026192	0.0760223	-0.254766	0.38611	0.00876515	0	0	-0.197416	-0.153668	-0.0774103	0.478134	0.260085	0	0	-0.135677	0.0757136	-0.00495946	0.607196	-0.213444	0.446283	1.04669	1.5708	0	0	0.736057	-0.152093	0.556825	0.758384	1.5708	0	0
9.43	2.87189	1.33759	-1.20096	0.753256	1.6239	0.986262	0.0304742	0.0737497	-0.257136	0.386346	0.00580716	0	0	-0.198824	-0.152119	-0.0691917	0.475998	0.256214	0	0	-0.134012	0.0758008	-0.00575051	0.603729	-0.218658	0.442846	1.05145	1.5708	0	0	0.735659	-0.148518	0.557833	0.759651	1.5708	0	0
9.44	2.87024	1.33835	-1.19703	0.751477	1.62059	0.985966	0.0350254	0.0715106	-0.25954	0.38631	0.00237705	0	0	-0.199888	-0.150463	-0.0609494	0.47281	0.249951	0	0	-0.132579	0.0761282	-0.00636873	0.600947	-0.22392	0.439497	1.0563	1.5708	0	0	0.735788	-0.144573	0.558724	0.760578	1.5708	0	0
9.45	2.8672	1.33912	-1.19188	0.749642	1.61711	0.985639	0.0397648	0.0694738	-0.261629	0.386046	-0.00130961	0	0	-0.200935	-0.148985	-0.0534137	0.46763	0.240259	0	0	-0.131401	0.0768529	-0.00692961	0.598924	-0.229543	0.437047	1.06097	1.5708	0	0	0.736382	-0.1405	0.55955	0.761285	1.5708	0	0
9.46	2.86265	1.33985	-1.18528	0.747743	1.61344	0.985266	0.0444741	0.0678427	-0.262957	0.385151	-0.00531921	0	0	-0.201884	-0.147683	-0.0465672	0.460713	0.226551	0	0	-0.13041	0.0779591	-0.00768257	0.59732	-0.235059	0.434143	1.06525	1.5708	0	0	0.737455	-0.136402	0.56052	0.761532	1.5708	0	0
9.47	2.85665	1.34028	-1.17704	0.745792	1.6096	0.984842	0.0490566	0.0666391	-0.26469	0.383944	-0.00959204	0	0	-0.202846	-0.146757	-0.0403417	0.452433	0.214253	0	0	-0.129887	0.0795303	-0.00882517	0.596505	-0.240967	0.431835	1.06932	1.5708	0	0	0.739143	-0.13246	0.561704	0.761723	1.5708	0	0
9.48	2.84947	1.34091	-1.16779	0.743769	1.60558	0.984345	0.0544114	0.0652678	-0.26668	0.383298	-0.0139102	0	0	-0.203316	-0.145828	-0.0349431	0.443103	0.213907	0	0	-0.129477	0.0814361	-0.00992995	0.59635	-0.247353	0.430157	1.07397	1.5708	0	0	0.741195	-0.128534	0.563108	0.761921	1.5708	0	0
9.49	2.84265	1.34146	-1.15913	0.741651	1.60137	0.98383	0.0599121	0.0635795	-0.268686	0.382759	-0.0183875	0	0	-0.204067	-0.144322	-0.0303568	0.431047	0.218667	0	0	-0.129575	0.0834003	-0.0109519	0.596562	-0.253668	0.428178	1.0787	1.5708	0	0	0.743704	-0.124589	0.564856	0.761837	1.5708	0	0
9.5	2.83701	1.34187	-1.15173	0.739444	1.59697	0.983315	0.0652775	0.0615219	-0.271112	0.382015	-0.0231889	0	0	-0.204896	-0.14234	-0.0266705	0.41736	0.220628	0	0	-0.130218	0.0852381	-0.012033	0.597571	-0.259869	0.426642	1.0826	1.5708	0	0	0.746616	-0.12072	0.566933	0.761574	1.5708	0	0
9.51	2.83204	1.34244	-1.14479	0.737149	1.59238	0.982767	0.0708486	0.0591412	-0.273661	0.381225	-0.0280939	0	0	-0.204841	-0.140031	-0.0237786	0.405255	0.223155	0	0	-0.131031	0.0869258	-0.0134362	0.599212	-0.26593	0.425261	1.08578	1.5708	0	0	0.749718	-0.116675	0.568265	0.761056	1.5708	0	0
